<svg id="SvgjsSvg1006" width="518.5" height="345" xmlns="http://www.w3.org/2000/svg" version="1.1" xmlns:xlink="http://www.w3.org/1999/xlink" xmlns:svgjs="http://svgjs.com/svgjs"><defs id="SvgjsDefs1007"><marker id="SvgjsMarker1054" markerWidth="16" markerHeight="12" refX="0" refY="6" viewBox="0 0 16 12" orient="auto" markerUnits="userSpaceOnUse"><path id="SvgjsPath1055" d="M15,1.5 L2,6 L15,10.5" fill="#323232" stroke="#323232" stroke-width="2"></path></marker><marker id="SvgjsMarker1058" markerWidth="16" markerHeight="12" refX="0" refY="6" viewBox="0 0 16 12" orient="auto" markerUnits="userSpaceOnUse"><path id="SvgjsPath1059" d="M15,1.5 L2,6 L15,10.5" fill="#323232" stroke="#323232" stroke-width="2"></path></marker><marker id="SvgjsMarker1062" markerWidth="16" markerHeight="12" refX="0" refY="6" viewBox="0 0 16 12" orient="auto" markerUnits="userSpaceOnUse"><path id="SvgjsPath1063" d="M15,1.5 L2,6 L15,10.5" fill="#323232" stroke="#323232" stroke-width="2"></path></marker><marker id="SvgjsMarker1066" markerWidth="16" markerHeight="12" refX="0" refY="6" viewBox="0 0 16 12" orient="auto" markerUnits="userSpaceOnUse"><path id="SvgjsPath1067" d="M15,1.5 L2,6 L15,10.5" fill="#323232" stroke="#323232" stroke-width="2"></path></marker><marker id="SvgjsMarker1070" markerWidth="16" markerHeight="12" refX="0" refY="6" viewBox="0 0 16 12" orient="auto" markerUnits="userSpaceOnUse"><path id="SvgjsPath1071" d="M15,1.5 L2,6 L15,10.5" fill="#323232" stroke="#323232" stroke-width="2"></path></marker></defs><g id="SvgjsG1008" transform="matrix(-1.8369701987210297e-16,-1,1,-1.8369701987210297e-16,68.50624084472659,147.50624847412107)"><path id="SvgjsPath1009" d="M 15.6 0L 91.83333333333334 0C 107.31818181818181 0 107.31818181818181 72.99999999999994 91.83333333333334 72.99999999999994L 15.6 72.99999999999994C -5.2 72.99999999999994 -5.2 0 15.6 0ZM 91.83333333333334 0C 76.62500000000003 0 76.62500000000003 72.99999999999994 91.83333333333334 72.99999999999994C 76.62500000000003 72.99999999999994 76.62500000000003 0 91.83333333333334 0" stroke="#323232" stroke-width="2" fill-opacity="1" fill="#ffffff"></path><g id="SvgjsG1010"><text id="SvgjsText1011" font-family="微软雅黑" text-anchor="middle" font-size="13px" width="0" fill="#323232" font-weight="400" align="middle" anchor="middle" family="微软雅黑" size="13px" weight="400" font-style="" y="26.549999999999972" transform="rotate(0)"></text></g></g><g id="SvgjsG1012" transform="translate(25.006240844726562,75.50624847412107)"><path id="SvgjsPath1013" d="M 0 0L 160 0L 160 40L 0 40Z" stroke="none" fill="none"></path><g id="SvgjsG1014"><text id="SvgjsText1015" font-family="微软雅黑" text-anchor="middle" font-size="13px" width="26" fill="#323232" font-weight="400" align="middle" anchor="middle" family="微软雅黑" size="13px" weight="400" font-style="" y="10.05" transform="rotate(0)"><tspan id="SvgjsTspan1016" dy="16" x="80"><tspan id="SvgjsTspan1017" style="text-decoration:;">云盘</tspan></tspan></text></g></g><g id="SvgjsG1018" transform="matrix(-1.8369701987210297e-16,-1,1,-1.8369701987210297e-16,68.50624084472659,307.50624084472656)"><path id="SvgjsPath1019" d="M 15.6 0L 91.83333333333334 0C 107.31818181818181 0 107.31818181818181 72.99999999999994 91.83333333333334 72.99999999999994L 15.6 72.99999999999994C -5.2 72.99999999999994 -5.2 0 15.6 0ZM 91.83333333333334 0C 76.62500000000003 0 76.62500000000003 72.99999999999994 91.83333333333334 72.99999999999994C 76.62500000000003 72.99999999999994 76.62500000000003 0 91.83333333333334 0" stroke="#323232" stroke-width="2" fill-opacity="1" fill="#ffffff"></path><g id="SvgjsG1020"><text id="SvgjsText1021" font-family="微软雅黑" text-anchor="middle" font-size="13px" width="0" fill="#323232" font-weight="400" align="middle" anchor="middle" family="微软雅黑" size="13px" weight="400" font-style="" y="26.549999999999972" transform="rotate(0)"></text></g></g><g id="SvgjsG1022" transform="translate(25.006240844726562,235.50624847412098)"><path id="SvgjsPath1023" d="M 0 0L 160 0L 160 40L 0 40Z" stroke="none" fill="none"></path><g id="SvgjsG1024"><text id="SvgjsText1025" font-family="微软雅黑" text-anchor="middle" font-size="13px" width="26" fill="#323232" font-weight="400" align="middle" anchor="middle" family="微软雅黑" size="13px" weight="400" font-style="" y="10.05" transform="rotate(0)"><tspan id="SvgjsTspan1026" dy="16" x="80"><tspan id="SvgjsTspan1027" style="text-decoration:;">云盘</tspan></tspan></text></g></g><g id="SvgjsG1028" transform="translate(410.50624084472656,25.006248474121165)"><path id="SvgjsPath1029" d="M 83 0L 83 35.999999999999986C 83 83.99999999999997 0 83.99999999999997 0 35.999999999999986Q 0 0 41.5 0L 41.5 0L 83 0Z" stroke="#323232" stroke-width="2" fill-opacity="1" fill="#ffffff"></path><g id="SvgjsG1030"><text id="SvgjsText1031" font-family="微软雅黑" text-anchor="middle" font-size="13px" width="52" fill="#323232" font-weight="400" align="middle" anchor="middle" family="微软雅黑" size="13px" weight="400" font-style="" y="26.049999999999986" transform="rotate(0)"><tspan id="SvgjsTspan1032" dy="16" x="41.5"><tspan id="SvgjsTspan1033" style="text-decoration:;">应用程序</tspan></tspan></text></g></g><g id="SvgjsG1034" transform="translate(205.50624084472656,148.3062515258788)"><path id="SvgjsPath1035" d="M 0 25.699996948242244L 59.100006103515625 0L 118.20001220703125 25.699996948242244L 59.100006103515625 51.39999389648449Z" stroke="#323232" stroke-width="2" fill-opacity="1" fill="#ffffff"></path><g id="SvgjsG1036"><text id="SvgjsText1037" font-family="微软雅黑" text-anchor="middle" font-size="13px" width="83" fill="#323232" font-weight="400" align="middle" anchor="middle" family="微软雅黑" size="13px" weight="400" font-style="" y="16.006996917724667" transform="rotate(0)"><tspan id="SvgjsTspan1038" dy="16" x="59.5"><tspan id="SvgjsTspan1039" style="text-decoration:;">WebDAV协议</tspan></tspan></text></g></g><g id="SvgjsG1040" transform="translate(410.50624084472656,248.00624847412115)"><path id="SvgjsPath1041" d="M 83 0L 83 35.999999999999986C 83 83.99999999999997 0 83.99999999999997 0 35.999999999999986Q 0 0 41.5 0L 41.5 0L 83 0Z" stroke="#323232" stroke-width="2" fill-opacity="1" fill="#ffffff"></path><g id="SvgjsG1042"><text id="SvgjsText1043" font-family="微软雅黑" text-anchor="middle" font-size="13px" width="52" fill="#323232" font-weight="400" align="middle" anchor="middle" family="微软雅黑" size="13px" weight="400" font-style="" y="26.049999999999986" transform="rotate(0)"><tspan id="SvgjsTspan1044" dy="16" x="41.5"><tspan id="SvgjsTspan1045" style="text-decoration:;">应用程序</tspan></tspan></text></g></g><g id="SvgjsG1046" transform="translate(410.50624084472656,136.50624847412115)"><path id="SvgjsPath1047" d="M 83 0L 83 35.999999999999986C 83 83.99999999999997 0 83.99999999999997 0 35.999999999999986Q 0 0 41.5 0L 41.5 0L 83 0Z" stroke="#323232" stroke-width="2" fill-opacity="1" fill="#ffffff"></path><g id="SvgjsG1048"><text id="SvgjsText1049" font-family="微软雅黑" text-anchor="middle" font-size="13px" width="52" fill="#323232" font-weight="400" align="middle" anchor="middle" family="微软雅黑" size="13px" weight="400" font-style="" y="26.049999999999986" transform="rotate(0)"><tspan id="SvgjsTspan1050" dy="16" x="41.5"><tspan id="SvgjsTspan1051" style="text-decoration:;">应用程序</tspan></tspan></text></g></g><g id="SvgjsG1052"><path id="SvgjsPath1053" d="M141.50624084472653 95.50624847412107C 182.01944856764078 95.50624847412107 164.9930331218123 174.00624847412104 205.50624084472656 174.00624847412104" stroke="#323232" stroke-width="2" fill="none" marker-start="url(#SvgjsMarker1054)"></path></g><g id="SvgjsG1056"><path id="SvgjsPath1057" d="M141.5062408447265 255.50624847412104C 182.95645194189706 255.50624847412104 164.056029747556 174.00624847412104 205.50624084472656 174.00624847412104" stroke="#323232" stroke-width="2" fill="none" marker-start="url(#SvgjsMarker1058)"></path></g><g id="SvgjsG1060"><path id="SvgjsPath1061" d="M410.50624084472656 61.00624847412115C 353.5104685371464 61.00624847412115 380.702025359338 174.0062484741211 323.7062530517578 174.00624847412104" stroke="#323232" stroke-width="2" fill="none" marker-start="url(#SvgjsMarker1062)"></path></g><g id="SvgjsG1064"><path id="SvgjsPath1065" d="M410.50624084472656 172.5062484741212C 375.78106178201296 172.5062484741212 358.4314321144714 174.00624847412104 323.7062530517578 174.00624847412104" stroke="#323232" stroke-width="2" fill="none" marker-start="url(#SvgjsMarker1066)"></path></g><g id="SvgjsG1068"><path id="SvgjsPath1069" d="M410.50624084472656 284.00624847412115C 354.4573509276414 284.00624847412115 379.75514296884296 174.0062484741211 323.7062530517578 174.00624847412104" stroke="#323232" stroke-width="2" fill="none" marker-start="url(#SvgjsMarker1070)"></path></g></svg>